<svg xmlns="http://www.w3.org/2000/svg" xmlns:xlink="http://www.w3.org/1999/xlink" version="1.1" x="0px" y="0px" viewBox="0 0 90 112.5" enable-background="new 0 0 90 90" xml:space="preserve"><path d="M18.391,39.638c-4.207,4.219-1.926,11.768,5.34,11.773l42.635,0.02c7.266,0.006,9.553-7.545,5.35-11.768L54.078,21.962  c-6.016-6.041-11.879-5.678-17.994-0.041L18.391,39.638z"/><path d="M16.809,66.724v-2.189c0-4.17,3.354-7.529,7.52-7.529h41.443c4.166,0,7.521,3.359,7.521,7.529v2.189  c0,4.172-3.355,7.529-7.521,7.529H24.328C20.162,74.253,16.809,70.896,16.809,66.724z"/><text x="0" y="105" fill="#000000" font-size="5px" font-weight="bold" font-family="'Helvetica Neue', Helvetica, Arial-Unicode, Arial, Sans-serif">Created by Cuputo</text><text x="0" y="110" fill="#000000" font-size="5px" font-weight="bold" font-family="'Helvetica Neue', Helvetica, Arial-Unicode, Arial, Sans-serif">from the Noun Project</text></svg>